<?xml version="1.0" encoding="UTF-8" standalone="no"?>
<!-- Created with Inkscape (http://www.inkscape.org/) -->

<svg
   xmlns:dc="http://purl.org/dc/elements/1.1/"
   xmlns:cc="http://creativecommons.org/ns#"
   xmlns:rdf="http://www.w3.org/1999/02/22-rdf-syntax-ns#"
   xmlns:svg="http://www.w3.org/2000/svg"
   xmlns="http://www.w3.org/2000/svg"
   xmlns:sodipodi="http://sodipodi.sourceforge.net/DTD/sodipodi-0.dtd"
   xmlns:inkscape="http://www.inkscape.org/namespaces/inkscape"
   width="210mm"
   height="297mm"
   viewBox="0 0 210 297"
   version="1.1"
   id="svg8"
   inkscape:version="0.92.3 (2405546, 2018-03-11)"
   sodipodi:docname="logo_big.svg">
  <defs
     id="defs2" />
  <sodipodi:namedview
     id="base"
     pagecolor="#ffffff"
     bordercolor="#666666"
     borderopacity="1.0"
     inkscape:pageopacity="0.0"
     inkscape:pageshadow="2"
     inkscape:zoom="0.49497475"
     inkscape:cx="259.25376"
     inkscape:cy="-5.1153138"
     inkscape:document-units="mm"
     inkscape:current-layer="layer1"
     showgrid="false"
     inkscape:window-width="1920"
     inkscape:window-height="1017"
     inkscape:window-x="-8"
     inkscape:window-y="-8"
     inkscape:window-maximized="1" />
  <metadata
     id="metadata5">
    <rdf:RDF>
      <cc:Work
         rdf:about="">
        <dc:format>image/svg+xml</dc:format>
        <dc:type
           rdf:resource="http://purl.org/dc/dcmitype/StillImage" />
        <dc:title></dc:title>
      </cc:Work>
    </rdf:RDF>
  </metadata>
  <g
     inkscape:label="Layer 1"
     inkscape:groupmode="layer"
     id="layer1">
    <rect
       style="fill:#26a6c3;fill-opacity:1;fill-rule:nonzero;stroke:none;stroke-width:0.76499999;stroke-linecap:round;stroke-linejoin:round;stroke-miterlimit:4;stroke-dasharray:none;stroke-dashoffset:342.83584595;stroke-opacity:0"
       id="rect4163"
       width="873.88092"
       height="379.4881"
       x="-370.05991"
       y="37.147755" />
    <path
       inkscape:connector-curvature="0"
       id="path4167"
       d="m 60.862421,218.21787 c -4.36741,-0.91505 -8.05255,-4.07037 -9.52966,-8.15958 -1.02755,-2.84468 -1.05368,-3.27902 -1.05368,-17.5198 v -12.92416 h 3.96994 3.96993 l 0.0639,11.89567 c 0.0709,13.20443 0.0591,13.0538 1.21803,15.49428 1.3852,2.91684 3.94924,4.35785 7.71158,4.33397 3.06253,-0.0194 5.42369,-1.00767 7.64116,-3.19813 1.14148,-1.12758 1.88416,-2.45145 2.38869,-4.25796 0.36012,-1.28947 0.37104,-1.61524 0.42887,-12.7955 l 0.0593,-11.47233 h 3.96965 3.96963 v 19.21933 19.21934 h -3.97933 -3.97934 v -3.38667 c 0,-1.86266 -0.0571,-3.386 -0.127,-3.38518 -0.0699,8.4e-4 -0.41178,0.44355 -0.75983,0.98387 -1.81879,2.8234 -5.14814,5.12202 -8.62667,5.95594 -1.87542,0.4496 -5.18114,0.44821 -7.33516,-0.003 z m 68.267629,0.0727 c -4.65222,-0.84053 -9.11542,-3.59603 -11.97807,-7.39506 -1.84961,-2.45461 -2.98101,-5.21696 -3.48388,-8.50588 -0.31896,-2.08622 -0.21747,-6.33403 0.19578,-8.19499 1.10589,-4.97985 4.04834,-9.08503 8.59892,-11.99686 6.3119,-4.03886 15.70765,-4.29459 22.05028,-0.60014 1.31911,0.76835 3.0665,2.06786 3.78984,2.81844 l 0.5725,0.59407 -2.25039,2.76307 c -1.23773,1.51969 -2.31059,2.83155 -2.38415,2.91524 -0.0749,0.0852 -0.39587,-0.078 -0.72939,-0.37081 -2.25602,-1.98081 -5.31207,-3.39364 -8.16068,-3.77272 -4.88776,-0.65044 -10.26907,2.10456 -12.58008,6.44047 -1.58709,2.97769 -1.71202,7.24787 -0.30983,10.58956 1.18107,2.81466 3.88802,5.51854 6.71317,6.70554 3.92398,1.64868 8.39824,1.23412 11.92168,-1.1046 0.49669,-0.32969 1.47644,-1.08864 2.17719,-1.68656 l 1.27411,-1.08714 2.31135,2.51575 c 1.27124,1.38367 2.31135,2.58608 2.31135,2.67204 0,0.086 -0.47625,0.57437 -1.05833,1.08537 -3.42887,3.01012 -7.26818,4.93801 -11.19893,5.62348 -1.87417,0.32683 -5.9517,0.32249 -7.78244,-0.008 z m 40.95237,-0.002 c -3.7113,-0.66262 -7.09129,-2.39328 -9.88279,-5.06025 -2.91859,-2.78842 -4.69541,-6.30318 -5.38388,-10.64999 -0.32842,-2.07362 -0.22599,-6.97944 0.18325,-8.77618 1.1364,-4.98925 3.73622,-8.75018 8.01841,-11.59944 4.2779,-2.84642 9.77874,-3.86224 15.30084,-2.82554 6.16908,1.15816 11.4483,5.31659 13.34406,10.5111 0.89367,2.44871 1.04517,3.52512 1.14579,8.1409 l 0.0932,4.27566 h -15.18478 -15.18478 l 0.10641,0.635 c 0.54359,3.2435 2.44866,5.69652 5.70071,7.34039 3.77633,1.90889 9.0056,1.93632 13.08889,0.0687 1.27838,-0.58472 3.02893,-1.82864 3.7063,-2.63366 0.23127,-0.27485 0.45,-0.49973 0.48607,-0.49973 0.13879,0 4.5283,4.89165 4.5283,5.04631 0,0.0899 -0.51435,0.60399 -1.143,1.14252 -2.98124,2.55389 -6.41372,4.15566 -10.3458,4.82789 -2.32144,0.39687 -6.51569,0.42442 -8.5772,0.0564 z m 14.64482,-23.13808 c -0.006,-2.30914 -1.09231,-4.77763 -2.8072,-6.38182 -3.70979,-3.47032 -10.13211,-3.83899 -14.71859,-0.84491 -2.86936,1.87313 -4.21007,3.96385 -4.58005,7.14207 l -0.11333,0.97366 h 11.11084 11.11084 l -0.002,-0.889 z M 6.0830814,202.051 v -16.002 h -2.37066 -2.37067 v -3.21734 -3.21733 h 2.37067 2.37066 l 10e-4,-1.82033 c 0.004,-5.19561 1.02551,-8.17876 3.72518,-10.87843 1.4665896,-1.4666 2.9052496,-2.3616 4.8247596,-3.00152 1.21876,-0.40631 1.60949,-0.4526 3.89467,-0.46134 2.2064,-0.008 2.7068,0.0424 3.81,0.38684 1.56932,0.49002 3.11964,1.29571 4.61069,2.39616 l 1.13936,0.84088 -1.11778,1.90853 c -0.61479,1.0497 -1.34432,2.30859 -1.62119,2.79754 -0.27688,0.48895 -0.54067,0.889 -0.58621,0.889 -0.0455,0 -0.51452,-0.33893 -1.04217,-0.75319 -1.90823,-1.49813 -3.67943,-1.91651 -5.7475,-1.35765 -0.97522,0.26354 -1.27635,0.44535 -2.09929,1.26747 -1.36038,1.35901 -1.69253,2.48304 -1.62691,5.50563 l 0.0477,2.19574 5.03767,0.0449 5.03766,0.0448 v 3.21481 3.21482 h -5.08 -5.08 v 16.002 16.002 h -4.064 -4.0639996 z M 31.483081,191.21366 v -26.83933 h 4.064 4.064 v 26.83933 26.83934 h -4.064 -4.064 z m 65.36267,7.62 v -19.21933 h 3.979329 3.97934 v 19.21933 19.21934 h -3.97934 -3.979329 z m 104.309329,-7.62 v -26.83933 h 3.97934 3.97933 v 26.83933 26.83934 h -3.97933 -3.97934 z m 19.13467,0 v -26.83933 h 3.97933 3.97933 v 26.83933 26.83934 h -3.97933 -3.97933 z M 99.611301,173.19656 c -1.47349,-0.37844 -3.04366,-1.8063 -3.51836,-3.19947 -0.84597,-2.48277 0.2072,-5.15455 2.47942,-6.28999 0.88478,-0.44213 1.22529,-0.51786 2.322099,-0.51645 1.53274,0.002 2.62016,0.43861 3.63022,1.45763 1.11716,1.12708 1.37798,1.79639 1.37798,3.53605 0,1.67314 -0.25361,2.37527 -1.28019,3.5445 -1.04972,1.19555 -3.39566,1.88266 -5.011169,1.46773 z"
       style="fill:#ffffff;fill-opacity:1;stroke-width:0.16933334"
       sodipodi:nodetypes="ccsccccccccccccccccsccsccccccsccccccsscsccccscscccccccsscccccsccsscccccsccccccccccccccccccccccccsccccccccccccccccccccccccccccccccccccccccccccccccccccccsccscc"
       inkscape:export-xdpi="90"
       inkscape:export-ydpi="90" />
    <path
       inkscape:connector-curvature="0"
       id="path4167-3"
       d="m 237.36904,246.99527 v -8.80534 h 1.35467 1.35467 v 1.12451 1.12451 l 0.67924,-0.77166 c 1.00989,-1.14731 1.9777,-1.55836 3.63875,-1.54552 1.86409,0.0144 3.02564,0.48297 4.30414,1.73625 3.14509,3.08304 2.1684,8.95888 -1.80924,10.88441 -0.52113,0.25228 -1.20007,0.39991 -2.05949,0.44783 -1.58987,0.0886 -2.82815,-0.32777 -3.97398,-1.33636 l -0.77942,-0.68608 v 3.31639 3.31639 h -1.35467 -1.35467 z m 8.57127,1.25864 c 1.10349,-0.68224 1.7592,-1.76368 1.88051,-3.10147 0.12915,-1.42439 -0.18147,-2.40053 -1.083,-3.40325 -0.93105,-1.03555 -1.88423,-1.43076 -3.18967,-1.3225 -3.12293,0.25898 -4.6369,4.5791 -2.48554,7.09249 0.84595,0.9883 1.72063,1.36345 3.01952,1.29508 0.79695,-0.0419 1.23178,-0.17307 1.85818,-0.56035 z m -133.87903,2.81647 c -2.15467,-0.65541 -3.3875,-2.6822 -2.90444,-4.77491 0.27405,-1.1873 0.71954,-1.73966 1.85128,-2.29542 0.91825,-0.45091 1.12202,-0.4806 3.84826,-0.56078 l 2.87866,-0.0847 0.053,-0.45951 c 0.0829,-0.719 -0.53601,-1.93044 -1.14791,-2.24686 -1.2443,-0.64344 -3.21492,-0.43353 -4.83318,0.51482 l -0.68308,0.40032 -0.57519,-0.84291 c -0.55824,-0.81806 -0.56562,-0.85033 -0.25041,-1.09441 0.71278,-0.55192 2.41864,-1.25359 3.50811,-1.44298 2.5496,-0.44321 4.96667,0.34529 5.95475,1.94257 l 0.51392,0.83079 0.0516,5.05142 0.0516,5.05142 h -1.19461 -1.19462 v -0.76976 -0.76976 l -0.78779,0.60152 c -0.43329,0.33084 -1.171,0.71533 -1.6394,0.85443 -0.89125,0.26467 -2.7743,0.31561 -3.50057,0.0947 z m 3.6105,-2.24846 c 1.05046,-0.31472 1.92026,-1.2373 2.06282,-2.18801 0.21208,-1.41423 0.21665,-1.41023 -1.67926,-1.46543 -2.23019,-0.0649 -3.3463,0.17376 -3.9023,0.83454 -0.57028,0.67774 -0.5673,1.47963 0.008,2.16338 0.67983,0.80794 2.11041,1.07506 3.5107,0.65552 z m 14.1706,2.25813 c -0.77838,-0.25564 -1.77264,-0.84242 -2.32834,-1.37409 l -0.55033,-0.52653 v 0.93992 0.93992 h -1.35467 -1.35466 v -8.97467 -8.97467 h 1.35466 1.35467 v 3.6149 3.6149 l 0.889,-0.88869 c 0.69809,-0.69785 1.10466,-0.95136 1.8933,-1.18049 2.65746,-0.77211 5.80376,0.69967 7.01397,3.28099 0.41004,0.8746 0.4484,1.13742 0.4484,3.07306 0,1.99602 -0.0282,2.17405 -0.49432,3.12344 -0.60688,1.23602 -1.63922,2.2943 -2.8352,2.90644 -0.71791,0.36745 -1.18246,0.47309 -2.25848,0.51361 -0.74507,0.0281 -1.54517,-0.0116 -1.778,-0.088 z m 2.46188,-2.5402 c 1.03981,-0.47233 2.04958,-1.72128 2.30139,-2.84653 0.86167,-3.85036 -3.40392,-6.88996 -6.21063,-4.42562 -2.25055,1.97599 -1.9659,5.67355 0.54803,7.11904 0.99065,0.56962 2.31177,0.6298 3.36121,0.15311 z m 23.43069,2.37702 c -2.37355,-0.78295 -3.95336,-2.62875 -4.38848,-5.1273 -0.39248,-2.25386 0.33713,-4.3935 2.03383,-5.96435 3.3378,-3.09021 8.87238,-2.02079 10.81661,2.09005 0.38688,0.81797 0.44066,1.14774 0.44198,2.70933 0.002,1.57644 -0.05,1.88777 -0.45234,2.74626 -0.63177,1.34791 -1.82321,2.56342 -3.1557,3.2194 -0.97466,0.47982 -1.29653,0.54963 -2.72711,0.59147 -1.22184,0.0357 -1.85561,-0.0296 -2.56879,-0.26486 z m 3.99476,-2.38064 c 2.13391,-0.9901 2.96511,-3.65377 1.8415,-5.90121 -1.85237,-3.70509 -7.25951,-2.52779 -7.63954,1.66337 -0.23263,2.56558 1.56482,4.56501 4.09561,4.55582 0.63533,-0.002 1.28264,-0.12321 1.70243,-0.31798 z m 37.0777,2.43254 c -1.66287,-0.61386 -2.61837,-1.99268 -2.61837,-3.7784 0,-1.28595 0.2826,-2.00704 1.03531,-2.64167 1.0574,-0.89153 1.538,-1.00589 4.63736,-1.10347 l 2.87867,-0.0906 0.0503,-0.68285 c 0.0364,-0.49468 -0.0587,-0.84464 -0.345,-1.27 -0.55838,-0.82948 -1.18784,-1.09515 -2.59478,-1.09515 -1.03197,0 -1.36391,0.0833 -2.4179,0.60649 l -1.22172,0.60649 -0.57514,-0.77582 c -0.70256,-0.9477 -0.6296,-1.07075 1.11066,-1.87289 2.80324,-1.29209 6.14277,-0.98836 7.72119,0.70226 0.89843,0.9623 0.96539,1.39091 1.03366,6.6178 l 0.0636,4.86834 h -1.28544 -1.28543 v -0.77706 -0.77705 l -0.5306,0.44648 c -1.07137,0.9015 -1.82188,1.16697 -3.44873,1.2199 -1.04111,0.0339 -1.74061,-0.0304 -2.20763,-0.20277 z m 3.85337,-2.11829 c 0.74992,-0.20827 1.57329,-0.86493 1.91634,-1.52831 0.13637,-0.26368 0.24792,-0.8642 0.24792,-1.33449 v -0.85508 l -1.82033,0.004 c -2.81039,0.006 -3.8525,0.38166 -4.17434,1.50385 -0.46258,1.61289 1.63104,2.82082 3.83041,2.20999 z m 22.85145,1.93728 c -0.48657,-0.24246 -1.08196,-0.69951 -1.32309,-1.01566 -0.80994,-1.06187 -0.89135,-1.57006 -0.89933,-5.61317 l -0.007,-3.76766 h -0.84667 -0.84666 v -1.10067 -1.10067 h 0.84666 0.84667 v -1.94733 -1.94733 h 1.35467 1.35466 v 1.94733 1.94733 h 1.69334 1.69333 v 1.10067 1.10067 h -1.69333 -1.69334 v 3.71234 3.71234 l 0.43355,0.51523 c 0.63207,0.75117 1.39691,0.84638 2.34337,0.29172 l 0.75204,-0.44073 0.51047,0.88418 c 0.5991,1.03768 0.54541,1.16612 -0.73743,1.76421 -1.1981,0.55858 -2.60666,0.54264 -3.78148,-0.0428 z M 103.42638,242.0846 v -8.97467 h 1.27 1.27 v 8.97467 8.97467 h -1.27 -1.27 z m 64.516,2.54 v -6.43467 h 1.27 1.27 v 1.10067 c 0,0.60537 0.0598,1.10067 0.13282,1.10067 0.073,0 0.26294,-0.22026 0.42196,-0.48947 0.44603,-0.75507 1.81646,-1.54448 3.03832,-1.75015 2.48485,-0.41827 4.7733,0.88633 5.37885,3.06636 0.0947,0.341 0.17057,2.65833 0.1711,5.22692 l 0.002,4.61434 h -1.27 -1.27 v -3.86394 c 0,-4.29068 -0.15083,-5.22176 -0.96969,-5.98614 -1.29567,-1.20947 -3.70752,-0.92077 -4.85291,0.58091 -0.64726,0.84861 -0.77277,1.7643 -0.77727,5.67083 l -0.005,3.59834 h -1.27 -1.27 z m 62.82266,0 v -6.43467 h 1.35467 1.35467 v 6.43467 6.43467 h -1.35467 -1.35467 z m -90.424,-0.762 v -1.27 h 3.97934 3.97933 v 1.27 1.27 h -3.97933 -3.97934 z m 43.01067,0 v -1.27 h 3.97933 3.97934 v 1.27 1.27 h -3.97934 -3.97933 z m 25.73867,0 v -1.27 h 3.97933 3.97933 v 1.27 1.27 h -3.97933 -3.97933 z m 22.20131,-7.94097 c -0.81211,-0.45012 -1.06834,-1.41991 -0.60955,-2.30709 0.5164,-0.99863 1.81412,-1.17011 2.63592,-0.3483 1.36693,1.36693 -0.33268,3.59413 -2.02637,2.65539 z"
       style="fill:#ffffff;fill-opacity:1;stroke-width:0.16933334"
       sodipodi:nodetypes="cccccccccccccccccccccccccccccccscccccccccccccsccccccccccccccccccccccccccscccccccccccccccccccccscccscccccsccsccccccccccccccscccccccccccccccccccccccccccccccccccccccccccccccccsscccccccsccccccccccccccccccccccccccccccccccccccccccccccc"
       inkscape:export-xdpi="90"
       inkscape:export-ydpi="90" />
    <g
       id="g4197"
       transform="translate(133.94626,-219.9905)"
       style="fill:#ffffff;fill-opacity:1"
       inkscape:export-xdpi="90"
       inkscape:export-ydpi="90">
      <path
         style="fill:#ffffff;fill-opacity:1;stroke-width:0.16933334"
         d="m -147.51716,470.77543 c -4.02675,-4.95302 -9.67011,-10.92072 -14.23927,-15.05762 -12.66757,-11.46917 -27.71335,-20.72571 -41.33776,-25.432 -11.02643,-3.80888 -20.13213,-3.3907 -28.59945,1.31342 -3.13148,1.73973 -6.22215,4.17466 -10.43546,8.22139 -1.50823,1.44859 -2.79898,2.63144 -2.86834,2.62854 -0.14262,-0.006 -6.02253,-9.71898 -6.10808,-10.08994 -0.0826,-0.35834 5.7399,-6.07811 7.59617,-7.46209 8.06626,-6.01396 17.90053,-9.3667 27.47443,-9.3667 4.10842,0 7.8821,0.56817 11.94347,1.79823 12.69172,3.84391 26.32533,14.12624 40.61192,30.6291 4.46597,5.15878 10.24542,12.2248 16.78782,20.525 l 2.56409,3.253 -0.73141,0.59934 c -0.40227,0.32963 -0.76999,0.59933 -0.81715,0.59933 -0.0472,0 -0.8756,-0.97155 -1.84098,-2.159 z m 2.87825,-2.45674 c -6.47165,-10.66462 -14.1901,-21.77362 -21.48606,-30.92444 -13.78627,-17.29116 -26.1676,-28.26196 -36.32659,-32.18811 -1.98271,-0.76626 -6.32558,-1.8171 -8.46666,-2.04867 -8.71282,-0.94233 -17.96159,2.37788 -27.11224,9.73302 -1.20034,0.9648 -2.98253,2.45621 -3.96043,3.31424 -0.9779,0.85803 -2.05684,1.78215 -2.39764,2.0536 l -0.61964,0.49356 -3.05748,-5.12328 -3.05748,-5.12328 0.62912,-0.65204 c 0.34602,-0.35862 1.42922,-1.35607 2.40712,-2.21655 7.00971,-6.16802 14.9339,-10.98253 21.16667,-12.86025 5.08637,-1.53235 10.98125,-2.20805 15.8637,-1.81837 16.72074,1.33451 29.50324,10.30848 42.45485,29.80548 5.03252,7.57581 9.04273,14.68854 21.25154,37.69283 l 5.93131,11.176 -0.54437,0.47747 c -1.08531,0.95193 -0.96031,1.03561 -2.67572,-1.79121 z m 2.7368,-3.73858 c -11.85702,-31.68428 -23.48823,-54.36642 -34.92093,-68.09968 -1.92021,-2.3066 -5.80988,-6.27068 -7.76385,-7.91237 -4.09627,-3.4416 -8.18406,-5.85084 -12.954,-7.63476 -2.65497,-0.99293 -6.29362,-1.53383 -10.24467,-1.52291 -10.64658,0.0294 -21.83361,4.60024 -34.24746,13.99283 -1.55986,1.18023 -2.89336,2.14269 -2.96333,2.13879 -0.07,-0.004 -1.48839,-2.26951 -3.15207,-5.0347 l -3.02485,-5.02762 0.65419,-0.56773 c 2.30634,-2.00153 7.68636,-5.78248 11.26169,-7.91446 16.61037,-9.90481 32.85328,-12.15692 47.61795,-6.60232 14.0606,5.28973 25.77932,18.00242 33.17719,35.99125 3.10501,7.55021 7.36952,20.09788 12.546,36.91467 3.72541,12.10271 7.23653,23.91278 7.18453,24.16601 -0.0278,0.1353 -0.3937,0.4998 -0.81316,0.81001 l -0.76265,0.56401 z"
         id="path4211"
         inkscape:connector-curvature="0"
         sodipodi:nodetypes="cssscccsssssccscsssccscccccssssscsssccccccccssssscccs" />
    </g>
    <flowRoot
       xml:space="preserve"
       id="flowRoot4445-4-1-4-5"
       style="font-style:normal;font-weight:normal;font-size:40px;line-height:0;font-family:sans-serif;letter-spacing:0px;word-spacing:0px;fill:#ffffff;fill-opacity:1;stroke:none;stroke-opacity:1"
       inkscape:export-xdpi="90"
       inkscape:export-ydpi="90"
       inkscape:export-filename="D:\code\Fluicell\Git\Labonatip2.0\apps\Biopen_wizard\icons\splash_screen.png"
       transform="matrix(2.9003021,0,0,2.9003021,-2048.8438,-3035.3668)"><flowRegion
         id="flowRegion4447-1-8-8-4"
         style="fill:#ffffff;fill-opacity:1;stroke:none;stroke-opacity:1"><rect
           id="rect4449-6-5-3-2"
           width="780.91675"
           height="124.73397"
           x="782.85712"
           y="1095.3768"
           style="fill:#ffffff;fill-opacity:1;stroke:none;stroke-opacity:1" /></flowRegion><flowPara
         id="flowPara4451-8-5-8-3"
         style="font-style:normal;font-variant:normal;font-weight:normal;font-stretch:normal;font-size:8px;font-family:Arial;-inkscape-font-specification:Arial;letter-spacing:0px;fill:#ffffff;fill-opacity:1;stroke:none;stroke-opacity:1">  ® </flowPara></flowRoot>    <flowRoot
       xml:space="preserve"
       id="flowRoot4445-4-1-4-5-1"
       style="font-style:normal;font-weight:normal;font-size:40px;line-height:0;font-family:sans-serif;letter-spacing:0px;word-spacing:0px;fill:#ffffff;fill-opacity:1;stroke:none;stroke-opacity:1"
       inkscape:export-xdpi="90"
       inkscape:export-ydpi="90"
       inkscape:export-filename="D:\code\Fluicell\Git\Labonatip2.0\apps\Biopen_wizard\icons\splash_screen.png"
       transform="matrix(1.9335347,0,0,1.9335347,-1270.0078,-1896.7994)"><flowRegion
         id="flowRegion4447-1-8-8-4-1"
         style="fill:#ffffff;fill-opacity:1;stroke:none;stroke-opacity:1"><rect
           id="rect4449-6-5-3-2-6"
           width="780.91675"
           height="124.73397"
           x="782.85712"
           y="1095.3768"
           style="fill:#ffffff;fill-opacity:1;stroke:none;stroke-opacity:1" /></flowRegion><flowPara
         id="flowPara4451-8-5-8-3-7"
         style="font-style:normal;font-variant:normal;font-weight:normal;font-stretch:normal;font-size:8px;font-family:Arial;-inkscape-font-specification:Arial;letter-spacing:0px;fill:#ffffff;fill-opacity:1;stroke:none;stroke-opacity:1">  ® </flowPara></flowRoot>    <rect
       style="fill:none;fill-opacity:1;fill-rule:nonzero;stroke:#ff0000;stroke-width:1.32449102;stroke-linecap:round;stroke-linejoin:round;stroke-miterlimit:4;stroke-dasharray:none;stroke-dashoffset:342.83584595;stroke-opacity:1"
       id="rect4840"
       width="399.19202"
       height="123.02968"
       x="-127.77024"
       y="140.66611"
       inkscape:export-xdpi="90"
       inkscape:export-ydpi="90" />
  </g>
</svg>
