<?xml version="1.0" encoding="UTF-8" standalone="no"?>
<!-- Created with Inkscape (http://www.inkscape.org/) -->

<svg
   xmlns:dc="http://purl.org/dc/elements/1.1/"
   xmlns:cc="http://creativecommons.org/ns#"
   xmlns:rdf="http://www.w3.org/1999/02/22-rdf-syntax-ns#"
   xmlns:svg="http://www.w3.org/2000/svg"
   xmlns="http://www.w3.org/2000/svg"
   xmlns:sodipodi="http://sodipodi.sourceforge.net/DTD/sodipodi-0.dtd"
   xmlns:inkscape="http://www.inkscape.org/namespaces/inkscape"
   width="112.44212mm"
   height="105.51036mm"
   viewBox="0 0 112.44212 105.51036"
   version="1.1"
   id="svg4230"
   inkscape:version="0.92.3 (2405546, 2018-03-11)"
   sodipodi:docname="logo.svg">
  <defs
     id="defs4224" />
  <sodipodi:namedview
     id="base"
     pagecolor="#ffffff"
     bordercolor="#666666"
     borderopacity="1.0"
     inkscape:pageopacity="0.0"
     inkscape:pageshadow="2"
     inkscape:zoom="0.35"
     inkscape:cx="-290.36808"
     inkscape:cy="159.38966"
     inkscape:document-units="mm"
     inkscape:current-layer="layer1"
     showgrid="false"
     fit-margin-top="0"
     fit-margin-left="0"
     fit-margin-right="0"
     fit-margin-bottom="0"
     inkscape:window-width="1920"
     inkscape:window-height="1017"
     inkscape:window-x="-8"
     inkscape:window-y="-8"
     inkscape:window-maximized="1" />
  <metadata
     id="metadata4227">
    <rdf:RDF>
      <cc:Work
         rdf:about="">
        <dc:format>image/svg+xml</dc:format>
        <dc:type
           rdf:resource="http://purl.org/dc/dcmitype/StillImage" />
        <dc:title></dc:title>
      </cc:Work>
    </rdf:RDF>
  </metadata>
  <g
     inkscape:label="Layer 1"
     inkscape:groupmode="layer"
     id="layer1"
     transform="translate(1.03654,-85.494818)">
    <g
       id="g4197"
       transform="translate(250.13673,-281.92925)"
       style="fill:#000000;fill-opacity:1">
      <path
         style="fill:#000000;fill-opacity:1;stroke-width:0.16933334"
         d="m -147.51716,470.77543 c -4.02675,-4.95302 -9.67011,-10.92072 -14.23927,-15.05762 -12.66757,-11.46917 -27.71335,-20.72571 -41.33776,-25.432 -11.02643,-3.80888 -20.13213,-3.3907 -28.59945,1.31342 -3.13148,1.73973 -6.22215,4.17466 -10.43546,8.22139 -1.50823,1.44859 -2.79898,2.63144 -2.86834,2.62854 -0.14262,-0.006 -6.02253,-9.71898 -6.10808,-10.08994 -0.0826,-0.35834 5.7399,-6.07811 7.59617,-7.46209 8.06626,-6.01396 17.90053,-9.3667 27.47443,-9.3667 4.10842,0 7.8821,0.56817 11.94347,1.79823 12.69172,3.84391 26.32533,14.12624 40.61192,30.6291 4.46597,5.15878 10.24542,12.2248 16.78782,20.525 l 2.56409,3.253 -0.73141,0.59934 c -0.40227,0.32963 -0.76999,0.59933 -0.81715,0.59933 -0.0472,0 -0.8756,-0.97155 -1.84098,-2.159 z m 2.87825,-2.45674 c -6.47165,-10.66462 -14.1901,-21.77362 -21.48606,-30.92444 -13.78627,-17.29116 -26.1676,-28.26196 -36.32659,-32.18811 -1.98271,-0.76626 -6.32558,-1.8171 -8.46666,-2.04867 -8.71282,-0.94233 -17.96159,2.37788 -27.11224,9.73302 -1.20034,0.9648 -2.98253,2.45621 -3.96043,3.31424 -0.9779,0.85803 -2.05684,1.78215 -2.39764,2.0536 l -0.61964,0.49356 -3.05748,-5.12328 -3.05748,-5.12328 0.62912,-0.65204 c 0.34602,-0.35862 1.42922,-1.35607 2.40712,-2.21655 7.00971,-6.16802 14.9339,-10.98253 21.16667,-12.86025 5.08637,-1.53235 10.98125,-2.20805 15.8637,-1.81837 16.72074,1.33451 29.50324,10.30848 42.45485,29.80548 5.03252,7.57581 9.04273,14.68854 21.25154,37.69283 l 5.93131,11.176 -0.54437,0.47747 c -1.08531,0.95193 -0.96031,1.03561 -2.67572,-1.79121 z m 2.7368,-3.73858 c -11.85702,-31.68428 -23.48823,-54.36642 -34.92093,-68.09968 -1.92021,-2.3066 -5.80988,-6.27068 -7.76385,-7.91237 -4.09627,-3.4416 -8.18406,-5.85084 -12.954,-7.63476 -2.65497,-0.99293 -6.29362,-1.53383 -10.24467,-1.52291 -10.64658,0.0294 -21.83361,4.60024 -34.24746,13.99283 -1.55986,1.18023 -2.89336,2.14269 -2.96333,2.13879 -0.07,-0.004 -1.48839,-2.26951 -3.15207,-5.0347 l -3.02485,-5.02762 0.65419,-0.56773 c 2.30634,-2.00153 7.68636,-5.78248 11.26169,-7.91446 16.61037,-9.90481 32.85328,-12.15692 47.61795,-6.60232 14.0606,5.28973 25.77932,18.00242 33.17719,35.99125 3.10501,7.55021 7.36952,20.09788 12.546,36.91467 3.72541,12.10271 7.23653,23.91278 7.18453,24.16601 -0.0278,0.1353 -0.3937,0.4998 -0.81316,0.81001 l -0.76265,0.56401 z"
         id="path4211"
         inkscape:connector-curvature="0"
         sodipodi:nodetypes="cssscccsssssccscsssccscccccssssscsssccccccccssssscccs" />
    </g>
  </g>
</svg>
