<?xml version="1.0" encoding="UTF-8" standalone="no"?>
<svg
   xmlns:dc="http://purl.org/dc/elements/1.1/"
   xmlns:cc="http://creativecommons.org/ns#"
   xmlns:rdf="http://www.w3.org/1999/02/22-rdf-syntax-ns#"
   xmlns:svg="http://www.w3.org/2000/svg"
   xmlns="http://www.w3.org/2000/svg"
   xmlns:sodipodi="http://sodipodi.sourceforge.net/DTD/sodipodi-0.dtd"
   xmlns:inkscape="http://www.inkscape.org/namespaces/inkscape"
   version="1.0"
   width="474.70584pt"
   height="482.82846pt"
   viewBox="0 0 474.70584 482.82846"
   preserveAspectRatio="xMidYMid meet"
   id="svg2"
   inkscape:version="0.92.2 (5c3e80d, 2017-08-06)"
   sodipodi:docname="plug_off.svg">
  <defs
     id="defs14" />
  <sodipodi:namedview
     pagecolor="#ffffff"
     bordercolor="#666666"
     borderopacity="1"
     objecttolerance="10"
     gridtolerance="10"
     guidetolerance="10"
     inkscape:pageopacity="0"
     inkscape:pageshadow="2"
     inkscape:window-width="2400"
     inkscape:window-height="1271"
     id="namedview12"
     showgrid="false"
     inkscape:zoom="1.0429825"
     inkscape:cx="-38.517789"
     inkscape:cy="272.31111"
     inkscape:window-x="-9"
     inkscape:window-y="-9"
     inkscape:window-maximized="1"
     inkscape:current-layer="g6"
     fit-margin-top="0"
     fit-margin-left="0"
     fit-margin-right="0"
     fit-margin-bottom="0" />
  <metadata
     id="metadata4">
Created by potrace 1.14, written by Peter Selinger 2001-2017
<rdf:RDF>
  <cc:Work
     rdf:about="">
    <dc:format>image/svg+xml</dc:format>
    <dc:type
       rdf:resource="http://purl.org/dc/dcmitype/StillImage" />
    <dc:title></dc:title>
  </cc:Work>
</rdf:RDF>
</metadata>
  <g
     transform="matrix(0.1,0,0,-0.1,-32.794185,507.74659)"
     id="g6"
     style="fill:#000000;stroke:none">
    <path
       d="m 4103,5062 c -139,-50 -223,-189 -194,-323 18,-83 43,-118 180,-253 125,-122 131,-130 131,-168 0,-36 -7,-47 -72,-115 -40,-41 -130,-129 -200,-195 l -128,-120 -62,57 c -99,90 -145,110 -253,110 -74,0 -98,-4 -135,-23 -38,-19 -674,-503 -720,-548 -13,-12 -4,-25 70,-100 l 85,-86 -203,-197 c -189,-183 -204,-199 -209,-238 -5,-37 -2,-46 25,-73 25,-25 39,-30 76,-30 h 46 l 207,201 206,201 129,-129 c 70,-70 127,-130 126,-133 -2,-3 -88,-89 -193,-190 -104,-102 -195,-194 -202,-205 -50,-83 48,-180 134,-132 12,6 110,97 218,201 l 196,190 87,-87 87,-86 275,332 c 151,182 287,356 303,386 22,44 27,67 27,125 0,93 -29,156 -112,243 l -63,65 203,199 c 229,225 252,258 252,365 0,114 -17,144 -166,291 -74,73 -139,144 -144,158 -14,37 -3,71 32,100 32,27 70,31 105,12 12,-7 131,-118 265,-248 423,-409 422,-409 462,-409 25,0 45,9 68,29 28,25 33,36 33,76 0,46 -2,48 -100,143 -476,461 -593,570 -639,591 -66,32 -164,38 -233,13 z"
       id="path8"
       style="fill:#28869c;fill-opacity:1"
       inkscape:export-filename="C:\code\Fluicell\Git\Labonatip\apps\Lab-on-a-tip\icons\plug_off.png"
       inkscape:export-xdpi="300"
       inkscape:export-ydpi="300"
       inkscape:connector-curvature="0" />
    <path
       d="m 2643,2740 c -22,-16 -85,-76 -140,-132 -55,-56 -135,-133 -178,-172 l -77,-70 -186,181 c -102,100 -189,179 -194,176 -24,-15 -558,-672 -580,-713 -20,-38 -25,-61 -25,-122 0,-98 25,-151 112,-241 l 67,-69 -203,-197 c -234,-227 -254,-256 -255,-368 -1,-111 22,-149 180,-305 110,-110 134,-139 134,-162 0,-76 -66,-123 -132,-94 -18,8 -181,159 -362,335 -201,197 -337,322 -350,323 -75,5 -126,-35 -126,-100 -1,-35 9,-46 182,-215 403,-393 517,-498 564,-519 112,-49 236,-30 325,50 75,67 94,110 94,212 0,118 -24,159 -181,307 -130,122 -146,146 -122,201 12,28 377,392 394,392 4,0 36,-27 70,-60 77,-74 136,-102 229,-108 117,-7 138,5 529,307 192,149 351,272 353,275 3,3 -79,88 -182,188 l -188,184 207,204 c 195,193 206,207 206,242 0,51 -33,88 -85,94 -33,5 -47,1 -80,-24 z"
       id="path10"
       style="fill:#28869c;fill-opacity:1"
       inkscape:connector-curvature="0"
       inkscape:export-filename="C:\code\Fluicell\Git\Labonatip\apps\Lab-on-a-tip\icons\plug_off.png"
       inkscape:export-xdpi="300"
       inkscape:export-ydpi="300" />
  </g>
</svg>
