<?xml version="1.0" encoding="UTF-8" standalone="no"?>
<!-- Created with Inkscape (http://www.inkscape.org/) -->

<svg
   xmlns:dc="http://purl.org/dc/elements/1.1/"
   xmlns:cc="http://creativecommons.org/ns#"
   xmlns:rdf="http://www.w3.org/1999/02/22-rdf-syntax-ns#"
   xmlns:svg="http://www.w3.org/2000/svg"
   xmlns="http://www.w3.org/2000/svg"
   xmlns:sodipodi="http://sodipodi.sourceforge.net/DTD/sodipodi-0.dtd"
   xmlns:inkscape="http://www.inkscape.org/namespaces/inkscape"
   width="12.318661mm"
   height="14.174604mm"
   viewBox="0 0 43.648798 50.224976"
   id="svg2"
   version="1.1"
   inkscape:version="0.92.1 r15371"
   sodipodi:docname="file.svg"
   inkscape:export-filename="C:\code\Fluicell\Git\Labonatip\apps\Lab-on-a-tip\icons\init.png"
   inkscape:export-xdpi="300"
   inkscape:export-ydpi="300">
  <defs
     id="defs4">
    <marker
       inkscape:stockid="Arrow1Lstart"
       orient="auto"
       refY="0"
       refX="0"
       id="marker4433"
       style="overflow:visible"
       inkscape:isstock="true">
      <path
         id="path4435"
         d="M 0,0 5,-5 -12.5,0 5,5 Z"
         style="fill:#505050;fill-opacity:1;fill-rule:evenodd;stroke:#505050;stroke-width:1.00000003pt;stroke-opacity:1"
         transform="matrix(0.8,0,0,0.8,10,0)"
         inkscape:connector-curvature="0" />
    </marker>
    <marker
       inkscape:stockid="Arrow1Lstart"
       orient="auto"
       refY="0"
       refX="0"
       id="Arrow1Lstart"
       style="overflow:visible"
       inkscape:isstock="true">
      <path
         id="path4163"
         d="M 0,0 5,-5 -12.5,0 5,5 Z"
         style="fill:#505050;fill-opacity:1;fill-rule:evenodd;stroke:#505050;stroke-width:1.00000003pt;stroke-opacity:1"
         transform="matrix(0.8,0,0,0.8,10,0)"
         inkscape:connector-curvature="0" />
    </marker>
  </defs>
  <sodipodi:namedview
     id="base"
     pagecolor="#ffffff"
     bordercolor="#666666"
     borderopacity="1.0"
     inkscape:pageopacity="0.0"
     inkscape:pageshadow="2"
     inkscape:zoom="2.8284271"
     inkscape:cx="-93.517444"
     inkscape:cy="64.007139"
     inkscape:document-units="px"
     inkscape:current-layer="layer1"
     showgrid="false"
     inkscape:snap-bbox="true"
     inkscape:bbox-paths="true"
     inkscape:bbox-nodes="true"
     inkscape:snap-bbox-edge-midpoints="true"
     inkscape:snap-bbox-midpoints="true"
     inkscape:window-width="1920"
     inkscape:window-height="1017"
     inkscape:window-x="-8"
     inkscape:window-y="-8"
     inkscape:window-maximized="1"
     fit-margin-top="0"
     fit-margin-left="0"
     fit-margin-right="0"
     fit-margin-bottom="0" />
  <metadata
     id="metadata7">
    <rdf:RDF>
      <cc:Work
         rdf:about="">
        <dc:format>image/svg+xml</dc:format>
        <dc:type
           rdf:resource="http://purl.org/dc/dcmitype/StillImage" />
        <dc:title />
      </cc:Work>
    </rdf:RDF>
  </metadata>
  <g
     inkscape:label="Layer 1"
     inkscape:groupmode="layer"
     id="layer1"
     transform="translate(1253.0589,-531.66138)">
    <g
       id="g4469"
       inkscape:export-filename="C:\code\Fluicell\Git\Labonatip\apps\Lab-on-a-tip\icons\init.png"
       inkscape:export-xdpi="300"
       inkscape:export-ydpi="300"
       style="stroke:#ffaa00;stroke-opacity:1">
      <path
         inkscape:connector-curvature="0"
         id="path4157"
         d="m -1220.1172,532.39911 v 9.8125 h 10.0052"
         style="fill:none;fill-rule:evenodd;stroke:#ffaa00;stroke-width:4.6875;stroke-linecap:butt;stroke-linejoin:miter;stroke-miterlimit:4;stroke-dasharray:none;stroke-opacity:1"
         sodipodi:nodetypes="ccc" />
      <path
         style="fill:none;stroke:#ffaa00;stroke-width:4.6875;stroke-linecap:butt;stroke-linejoin:miter;stroke-miterlimit:4;stroke-dasharray:none;stroke-opacity:1"
         d="m -1217.807,534.23951 h -30.2801 v 45.40952 h 35.6316 v -37.3717"
         id="path4511"
         inkscape:connector-curvature="0"
         sodipodi:nodetypes="ccccc" />
      <path
         style="fill:none;stroke:#ffaa00;stroke-width:4.6875;stroke-linecap:butt;stroke-linejoin:miter;stroke-miterlimit:4;stroke-dasharray:none;stroke-opacity:1"
         d="m -1219.5415,533.50167 7.7356,7.99935"
         id="path4517"
         inkscape:connector-curvature="0"
         sodipodi:nodetypes="cc" />
    </g>
    <path
       style="fill:none;stroke:#ffaa00;stroke-width:9.37499988;stroke-linecap:round;stroke-linejoin:miter;stroke-miterlimit:4;stroke-dasharray:none;stroke-opacity:1"
       d="m -1250.6818,544.91842 h 6.3079"
       id="path4503"
       inkscape:connector-curvature="0"
       inkscape:export-filename="C:\code\Fluicell\Git\Labonatip\apps\Lab-on-a-tip\icons\init.png"
       inkscape:export-xdpi="300"
       inkscape:export-ydpi="300" />
    <path
       style="fill:none;stroke:#ffaa00;stroke-width:9.37499988;stroke-linecap:round;stroke-linejoin:miter;stroke-miterlimit:4;stroke-dasharray:none;stroke-opacity:1"
       d="m -1250.6818,571.16842 h 6.3079"
       id="path4503-0"
       inkscape:connector-curvature="0"
       inkscape:export-filename="C:\code\Fluicell\Git\Labonatip\apps\Lab-on-a-tip\icons\init.png"
       inkscape:export-xdpi="300"
       inkscape:export-ydpi="300" />
    <path
       inkscape:connector-curvature="0"
       style="fill:#ffaa00;fill-opacity:1;stroke:none;stroke-width:4.6875;stroke-miterlimit:4;stroke-dasharray:none"
       id="path8"
       d="m -1232.0244,546.22056 c -0.5878,0.28401 -1.0744,0.51738 -1.0832,0.52179 -0.01,0.004 0.02,0.29941 0.062,0.65606 0.04,0.35667 0.075,0.6781 0.075,0.71552 0,0.0484 -0.046,0.12329 -0.174,0.28621 l -0.1761,0.22237 -0.6957,0.0749 c -0.3809,0.0418 -0.7023,0.0815 -0.7133,0.0881 -0.016,0.009 -0.557,2.33809 -0.546,2.34689 0.024,0.0132 1.1955,0.74194 1.1999,0.74635 0.01,0.004 0.038,0.13209 0.073,0.2862 l 0.064,0.2796 -0.049,0.0815 c -0.026,0.044 -0.1959,0.31042 -0.3742,0.59443 -0.1784,0.28181 -0.3259,0.52178 -0.3259,0.53279 0,0.0198 1.4619,1.86034 1.4905,1.87575 0.011,0.004 0.306,-0.0925 0.656,-0.21796 0.3523,-0.12549 0.6583,-0.22676 0.6847,-0.22676 0.026,-0.002 0.1564,0.0506 0.2884,0.11668 l 0.2422,0.11889 0.059,0.16292 c 0.1013,0.28401 0.4095,1.16904 0.4095,1.17785 0,0.002 0.546,0.006 1.2108,0.006 0.6671,0 1.2109,-0.002 1.2109,-0.006 0,-0.009 0.3852,-1.11621 0.4316,-1.2439 0.033,-0.0881 0.049,-0.10127 0.2751,-0.21355 0.1322,-0.0661 0.2576,-0.12109 0.2796,-0.12109 0.033,0 1.0392,0.34344 1.2879,0.43812 0.059,0.022 0.064,0.0177 0.808,-0.91146 0.4117,-0.51518 0.7485,-0.94448 0.7485,-0.95329 0,-0.011 -0.1585,-0.2708 -0.3544,-0.57902 -0.1937,-0.30822 -0.3632,-0.57682 -0.3742,-0.59663 -0.026,-0.0462 0.095,-0.59003 0.1365,-0.61425 0.018,-0.009 0.2884,-0.17832 0.6032,-0.37647 0.361,-0.22676 0.5702,-0.37206 0.568,-0.39188 -0.015,-0.11668 -0.5239,-2.30286 -0.5372,-2.31167 -0.011,-0.006 -0.3324,-0.0462 -0.7155,-0.0881 l -0.6957,-0.0749 -0.1805,-0.22898 -0.1784,-0.22896 0.079,-0.70891 c 0.046,-0.38749 0.074,-0.70891 0.068,-0.71331 -0.01,-0.004 -0.4953,-0.23778 -1.0832,-0.52179 l -1.0678,-0.51296 -0.5063,0.50416 -0.5064,0.50416 h -0.2972 -0.2972 l -0.5063,-0.50416 -0.5065,-0.50636 z m 4.3427,4.58939 c 0.2094,1.21342 -1.8146,4.42877 -3.9394,0.70147 0.4259,-2.46832 3.4378,-2.15572 3.9394,-0.70147 z"
       inkscape:export-filename="C:\code\Fluicell\Git\Labonatip\apps\Lab-on-a-tip\icons\init.png"
       inkscape:export-xdpi="300"
       inkscape:export-ydpi="300"
       sodipodi:nodetypes="cccsccccccccccsccccccsssccsccscccccccccccccccccccccccc" />
    <path
       inkscape:connector-curvature="0"
       style="fill:#ffaa00;fill-opacity:1;stroke:none;stroke-width:1.875;stroke-miterlimit:4;stroke-dasharray:none;stroke-opacity:1"
       id="path10"
       d="m -1229.9659,549.11786 c -0.4491,0.0638 -0.9202,0.30822 -1.2373,0.64507 -0.2532,0.26639 -0.4425,0.60103 -0.5394,0.95328 -0.064,0.23117 -0.068,0.79698 -0.011,1.02815 0.1629,0.64506 0.5922,1.17344 1.1866,1.45524 0.3171,0.14972 0.535,0.19595 0.9203,0.19595 0.2576,0 0.3566,-0.009 0.5152,-0.0484 0.4734,-0.11889 0.9224,-0.4161 1.2174,-0.80578 0.1322,-0.17393 0.3017,-0.52838 0.3633,-0.75075 0.07,-0.26198 0.07,-0.80357 0,-1.06776 -0.064,-0.23778 -0.2333,-0.58562 -0.3742,-0.77056 -0.4734,-0.62525 -1.2593,-0.94669 -2.0409,-0.8344 z m 0.6824,0.67148 c 0.073,0.0177 0.2159,0.0726 0.3193,0.12329 0.3589,0.17393 0.6759,0.56361 0.7838,0.96429 0.05,0.19155 0.05,0.55701 0,0.74635 -0.1145,0.4271 -0.3875,0.76395 -0.7859,0.9709 -0.218,0.11228 -0.4184,0.16071 -0.6804,0.16071 -0.2509,0 -0.4535,-0.0462 -0.6538,-0.1475 -0.4139,-0.20695 -0.6957,-0.5482 -0.8124,-0.98191 -0.05,-0.19154 -0.05,-0.557 0,-0.74855 0.1343,-0.49535 0.5261,-0.90705 1.0215,-1.06777 0.2246,-0.0726 0.5548,-0.0815 0.8079,-0.0198 z"
       inkscape:export-filename="C:\code\Fluicell\Git\Labonatip\apps\Lab-on-a-tip\icons\init.png"
       inkscape:export-xdpi="300"
       inkscape:export-ydpi="300" />
    <flowRoot
       xml:space="preserve"
       id="flowRoot4528"
       style="font-style:normal;font-variant:normal;font-weight:bold;font-stretch:normal;font-size:40px;line-height:1.25;font-family:Arial;-inkscape-font-specification:'Arial Bold';letter-spacing:0px;word-spacing:0px;fill:#ffaa00;fill-opacity:1;stroke:none;"
       transform="matrix(0.93750001,0,0,0.93750001,-1063.5907,610.62111)"
       inkscape:export-filename="C:\code\Fluicell\Git\Labonatip\apps\Lab-on-a-tip\icons\init.png"
       inkscape:export-xdpi="300"
       inkscape:export-ydpi="300"><flowRegion
         id="flowRegion4530"
         style="font-style:normal;font-variant:normal;font-weight:bold;font-stretch:normal;font-family:Arial;-inkscape-font-specification:'Arial Bold';fill:#ffaa00;fill-opacity:1;"><rect
           id="rect4532"
           width="163.34166"
           height="128.69344"
           x="-187.02974"
           y="-80.423424"
           style="font-style:normal;font-variant:normal;font-weight:bold;font-stretch:normal;font-family:Arial;-inkscape-font-specification:'Arial Bold';fill:#ffaa00;fill-opacity:1;" /></flowRegion><flowPara
         id="flowPara4534"
         style="font-style:normal;font-variant:normal;font-weight:bold;font-stretch:normal;font-size:16px;font-family:Arial;-inkscape-font-specification:'Arial Bold';fill:#ffaa00;fill-opacity:1;">INI</flowPara></flowRoot>  </g>
</svg>
