<?xml version="1.0" encoding="UTF-8" standalone="no"?>
<!-- Generator: Adobe Illustrator 16.0.0, SVG Export Plug-In . SVG Version: 6.00 Build 0)  -->

<svg
   xmlns:dc="http://purl.org/dc/elements/1.1/"
   xmlns:cc="http://creativecommons.org/ns#"
   xmlns:rdf="http://www.w3.org/1999/02/22-rdf-syntax-ns#"
   xmlns:svg="http://www.w3.org/2000/svg"
   xmlns="http://www.w3.org/2000/svg"
   xmlns:sodipodi="http://sodipodi.sourceforge.net/DTD/sodipodi-0.dtd"
   xmlns:inkscape="http://www.inkscape.org/namespaces/inkscape"
   version="1.1"
   id="Capa_1"
   x="0px"
   y="0px"
   width="447.43369"
   height="745.45496"
   viewBox="0 0 419.46906 698.864"
   xml:space="preserve"
   inkscape:version="0.92.1 r15371"
   sodipodi:docname="wizard.svg"
   inkscape:export-filename="C:\code\Fluicell\Git\Labonatip\apps\Lab-on-a-tip\icons\wizard.png"
   inkscape:export-xdpi="300"
   inkscape:export-ydpi="300"><metadata
     id="metadata41"><rdf:RDF><cc:Work
         rdf:about=""><dc:format>image/svg+xml</dc:format><dc:type
           rdf:resource="http://purl.org/dc/dcmitype/StillImage" /><dc:title /></cc:Work></rdf:RDF></metadata><defs
     id="defs39" /><sodipodi:namedview
     pagecolor="#ffffff"
     bordercolor="#666666"
     borderopacity="1"
     objecttolerance="10"
     gridtolerance="10"
     guidetolerance="10"
     inkscape:pageopacity="0"
     inkscape:pageshadow="2"
     inkscape:window-width="2400"
     inkscape:window-height="1271"
     id="namedview37"
     showgrid="false"
     fit-margin-top="0"
     fit-margin-left="0"
     fit-margin-right="0"
     fit-margin-bottom="0"
     inkscape:zoom="0.88710732"
     inkscape:cx="322.74961"
     inkscape:cy="418.2102"
     inkscape:window-x="-9"
     inkscape:window-y="-9"
     inkscape:window-maximized="1"
     inkscape:current-layer="g3"
     inkscape:snap-bbox="true"
     inkscape:bbox-nodes="true"
     inkscape:bbox-paths="true"
     inkscape:snap-bbox-edge-midpoints="true"
     inkscape:snap-bbox-midpoints="true" /><g
     id="g3"
     transform="translate(1033.6294,-266.71463)"><path
       style="fill:#576a5d;fill-opacity:1;stroke:#576a5d;stroke-width:0.43780282;stroke-linecap:round;stroke-miterlimit:4;stroke-dasharray:none;stroke-dashoffset:0;stroke-opacity:1"
       d="m -802.0835,603.03526 c 5.051,-0.38308 23.578,-2.57043 33.8818,-4.00037 35.4232,-4.91608 51.1793,-9.59986 77.8993,-23.15693 21.248,-10.78072 27.3507,-17.50732 30.71,-33.84976 0.9222,-4.48642 1.1901,-7.50056 1.0282,-11.56925 -0.197,-4.94772 -0.421,-5.87998 -2.2232,-9.25136 -5.1651,-9.66238 -16.7008,-17.99226 -34.7276,-25.07669 -15.0649,-5.92042 -36.868,-10.74847 -53.0234,-11.74142 -3.1697,-0.19489 -6.3725,-0.65104 -7.1174,-1.0139 -2.3574,-1.14823 -7.9896,-9.36828 -11.8769,-17.33389 -5.7084,-11.69755 -10.5419,-24.85494 -13.4633,-36.6491 -1.1873,-4.79318 -1.5308,-8.14849 -1.9924,-19.46124 -0.8097,-19.83802 -0.9902,-20.6312 -11.3264,-49.75037 -2.5477,-7.17747 -2.7783,-8.27017 -2.8105,-13.32105 -0.031,-4.87267 0.1401,-5.8335 1.4972,-8.39804 5.2202,-9.86489 15.8306,-14.85604 29.7331,-13.9865 10.1829,0.6369 17.6701,2.28205 34.8873,7.66578 15.0421,4.7036 19.2758,5.46526 19.2758,3.46787 0,-3.40266 -20.5045,-27.91275 -29.7461,-35.5572 -22.6394,-18.72666 -61.158,-33.11831 -88.6396,-33.11831 -16.0314,0 -27.4848,3.96814 -35.4771,12.2914 -8.0503,8.38351 -12.5555,17.93434 -22.2051,47.07424 -2.9536,8.91932 -8.4941,24.29647 -12.3123,34.17141 -9.5193,24.61974 -7.9775,21.4232 -6.5031,22.61719 l 4.13912,3.37608 -4.55822,0.34269 c -1.5785,0.65382 -2.8088,-0.006 -3.5756,3.40319 -0.4767,2.11923 -1.6808,9.32637 -2.6758,16.01583 -2.2125,14.87474 -3.4515,20.7135 -6.0078,28.31034 -1.0847,3.22355 -2.6781,8.85835 -3.5408,12.52161 -4.0555,17.22085 -6.18484,25.16784 -8.21309,30.65234 -2.98304,8.06631 -2.15496,7.70242 -27.12426,11.92162 -33.33882,5.6335 -50.39985,12.45651 -62.84065,25.13122 -5.1696,5.26667 -7.8278,9.20415 -10.2926,15.24519 -3.3049,8.10047 -2.1295,13.01618 4.6025,19.24903 3.2834,3.03984 5.9303,4.68094 14.8341,9.19721 23.84703,12.09601 31.96413,14.71826 79.10132,25.55457 41.86608,9.62456 78.77948,16.27405 104.53708,18.83112 5.545,0.55041 20.0349,0.65876 26.1464,0.19552 z m -52.7051,-37.83179 c -36.5129,-3.15424 -61.1634,-11.59746 -72.13217,-24.70655 -8.11689,-9.70068 -11.79097,-15.82975 -9.48929,-15.82975 0.34192,0 2.88306,2.08322 5.64697,4.62929 16.50089,15.20041 34.09069,22.90216 61.78469,27.05262 5.7059,0.85512 10.6308,1.03922 27.5109,1.02837 l 20.5607,-0.0138 6.371,-1.64515 c 10.2331,-2.64244 19.0784,-5.92679 28.3796,-10.53781 10.4458,-5.17829 16.9068,-9.70246 25.9755,-18.18871 7.7536,-7.25554 8.6429,-7.8754 9.616,-6.7028 0.5253,0.63284 0.3309,1.48816 -0.8858,3.89721 -11.9327,23.6268 -38.4451,38.03562 -75.8272,41.21025 -5.3346,0.45295 -21.3273,0.34018 -27.5109,-0.19369 z m 34.7159,-44.36646 -1.1202,-1.8031 -4.4903,1.07457 c -4.6838,1.12092 -7.0967,1.35659 -7.0967,0.69328 0,-0.21452 1.5845,-2.32089 3.521,-4.68034 l 3.521,-4.28998 -1.4254,-2.15382 c -0.7839,-1.18458 -2.1236,-3.53177 -2.977,-5.21585 l -1.5516,-3.06204 1.3383,0.41556 c 0.7361,0.22861 3.3813,1.13404 5.8782,2.01235 l 4.5398,1.59698 4.3345,-4.42366 4.3345,-4.42374 -0.2691,6.22617 c -0.1481,3.4244 -0.063,6.22614 0.1898,6.22614 1.2737,0 10.436,4.26967 10.0272,4.67268 -0.2614,0.25743 -2.805,1.14193 -5.6525,1.9651 -2.8475,0.82314 -5.2854,1.60476 -5.4176,1.73695 -0.1321,0.13233 -0.4772,2.40684 -0.7668,5.05486 -0.2895,2.64796 -0.6599,5.17859 -0.823,5.62364 -0.2877,0.78466 -3.4163,-2.93512 -6.0942,-7.24563 z m -65.7761,-34.50712 c -1.4677,-2.20775 -2.9788,-3.89509 -3.3581,-3.74957 -1.6749,0.64277 -10.3068,2.18827 -10.5976,1.8975 -0.2765,-0.27643 1.8799,-3.29006 5.7963,-8.10046 1.0112,-1.24199 0.971,-1.37258 -1.8838,-6.12264 -1.6044,-2.66947 -2.8025,-4.9681 -2.6626,-5.1081 0.14,-0.13979 2.7836,0.5878 5.8746,1.61781 l 5.6201,1.8723 3.7313,-4.12908 c 2.0523,-2.271 4.0098,-4.12909 4.3501,-4.12909 0.4213,0 0.5054,1.85948 0.2635,5.82959 l -0.3551,5.82951 1.6613,0.5792 c 0.9137,0.31874 3.445,1.43776 5.6251,2.48714 l 3.9637,1.90804 -3.8485,1.202 c -2.1165,0.66116 -4.7904,1.37876 -5.9419,1.59482 -2.3399,0.43887 -2.3871,0.54919 -2.9419,6.87511 -0.1934,2.20389 -0.4932,4.2364 -0.6665,4.51675 -0.4904,0.79356 -1.734,-0.51485 -4.6299,-4.87078 z m 37.3057,-68.71291 -1.5733,-1.4354 -2.2043,1.45871 c -1.2123,0.80224 -3.329,2.03252 -4.7038,2.73387 l -2.4996,1.27519 0.4144,-1.34094 c 0.2279,-0.73754 1.0319,-3.03502 1.7868,-5.1056 l 1.3724,-3.76466 -3.8685,-3.52037 c -2.6036,-2.36926 -3.6382,-3.66272 -3.1642,-3.95569 0.3874,-0.23966 2.7854,-0.34938 5.329,-0.24457 l 4.6248,0.19124 1.8715,-4.27049 c 1.0293,-2.34878 2.1104,-4.30351 2.4024,-4.34378 0.5503,-0.076 0.8072,0.58778 2.363,6.10594 l 0.9257,3.28343 4.2352,0.39719 c 2.3293,0.21819 4.5722,0.60494 4.9842,0.85979 0.523,0.32302 -0.5056,1.37848 -3.4072,3.49557 -2.8816,2.10252 -4.07,3.31863 -3.8749,3.9652 0.7149,2.3692 1.4558,6.29755 1.4686,7.78665 l 0.014,1.64141 -2.4615,-1.88848 c -1.3538,-1.03874 -3.1694,-2.53446 -4.0348,-3.32395 z m 32.7862,-26.39948 -2.7271,-4.1674 -4.6864,1.37534 c -4.7397,1.39092 -10.1887,2.48075 -10.1887,2.03779 0,-0.70167 1.7118,-3.26927 5.0063,-7.50931 2.0248,-2.60583 3.6814,-4.89812 3.6814,-5.09394 0,-0.19553 -1.2648,-2.23382 -2.8106,-4.52882 -2.6883,-3.99125 -4.7187,-7.51889 -4.7187,-8.19837 0,-0.79017 2.8008,-0.1453 8.5,1.95665 l 6.1679,2.27498 1.2089,-1.54268 c 4.5033,-5.74657 6.8383,-8.48954 7.8005,-9.1635 0.9946,-0.69666 1.146,-0.61752 1.4976,0.78312 0.215,0.85693 0.2116,4.32511 -0.01,7.70705 l -0.3986,6.14895 4.5565,1.63951 c 5.7932,2.08445 9.4795,3.77912 9.4795,4.35784 0,0.61703 -3.3647,1.87916 -9.3313,3.50028 l -4.9875,1.35513 -0.387,6.37151 c -0.2128,3.5044 -0.5509,7.02462 -0.7512,7.82281 l -0.3642,1.45118 -1.9064,-2.20537 c -1.0484,-1.21292 -3.1335,-4.08067 -4.6334,-6.37275 z m -70.7848,-18.00711 -2.6045,0.39043 1.5524,-1.84496 1.5525,-1.84496 -1.217,-1.96915 c -1.3272,-2.14731 -1.2066,-2.24457 1.7364,-1.40052 1.7244,0.49463 2.2329,0.37755 3.9056,-0.89823 l 1.9231,-1.46686 v 2.25453 c 0,2.13112 0.1277,2.29275 2.3334,2.95362 2.777,0.83202 2.5697,1.55572 -0.5989,2.09104 -2.1432,0.36224 -2.3137,0.52957 -2.3137,2.27057 0,2.65679 -0.4924,2.8439 -2.1864,0.83076 -1.3675,-1.6253 -1.6736,-1.7277 -4.0829,-1.36639 z m 73.7434,-47.20086 c -1.9804,-2.06707 -2.4784,-2.11562 -5.2042,-0.50749 -1.1467,0.67661 -2.1965,1.11866 -2.3329,0.98227 -0.1363,-0.13613 0.186,-1.60451 0.7162,-3.26265 l 0.9641,-3.01477 -2.2569,-2.3113 -2.257,-2.31133 h 3.2104 3.2103 l 0.7741,-2.34572 c 1.2756,-3.86497 1.6583,-3.73278 2.8657,0.98931 0.5975,2.33671 0.7016,2.42007 3.5037,2.80549 1.5883,0.21819 2.8879,0.59882 2.8879,0.84503 0,0.2464 -1.0677,1.15444 -2.3727,2.018 -2.2383,1.48125 -2.3514,1.69062 -1.9962,3.69685 0.207,1.16965 0.5104,2.58275 0.6741,3.14018 0.4461,1.51835 -0.5187,1.22567 -2.3866,-0.72398 z m -45.062,-44.27247 -1.8513,-0.38737 1.7375,-0.89915 c 2.2163,-1.14697 3.1855,-2.38564 3.1855,-4.07122 0,-1.68396 0.7681,-1.71222 1.8595,-0.0686 0.7764,1.16926 0.9877,1.20862 2.6955,0.50137 2.3841,-0.98748 2.7172,-0.59823 1.1706,1.36805 -1.0408,1.32323 -1.1355,1.80848 -0.5873,3.0116 0.9204,2.0199 0.8614,2.12083 -1.0733,1.83686 -1.3437,-0.19735 -2.0826,0.11963 -3.3303,1.42726 l -1.6035,1.68063 -0.1758,-2.0059 c -0.152,-1.73545 -0.4254,-2.05826 -2.0271,-2.39341 z"
       id="path4712"
       inkscape:connector-curvature="0"
       sodipodi:nodetypes="ccsccssccccccccssscscscccccsccscccccscccccsccccsccccccccccscccccccccccsccccccccccccccccscccccccccccccccccccccccccccccccccccccccscscsccccccccsccccccccccccccccsccscccccccccccccccsccccccccsccsccccccc"
       inkscape:export-filename="C:\code\Fluicell\Git\Labonatip\apps\Lab-on-a-tip\icons\wizard.png"
       inkscape:export-xdpi="300"
       inkscape:export-ydpi="300" /><g
       id="g4547"
       style="fill:#576a5d;fill-opacity:1"
       transform="matrix(0.25795394,0,0,0.25795394,-597.5976,775.85777)"
       inkscape:export-filename="C:\code\Fluicell\Git\Labonatip\apps\Lab-on-a-tip\icons\wizard.png"
       inkscape:export-xdpi="300"
       inkscape:export-ydpi="300"><path
         sodipodi:nodetypes="ccccc"
         inkscape:connector-curvature="0"
         id="path4512"
         d="m -955.93469,135.00708 h 94.03109 l -11.25,93.03566 h -71.53109 z"
         style="fill:#576a5d;fill-opacity:1;stroke:none;stroke-width:0.93749994px;stroke-linecap:butt;stroke-linejoin:miter;stroke-opacity:1" /><path
         sodipodi:nodetypes="ccccc"
         inkscape:connector-curvature="0"
         id="path4512-0"
         d="m -963.43469,337.53134 h 109.03109 l -18.75,-102.41065 h -71.53109 z"
         style="fill:#576a5d;fill-opacity:1;stroke:none;stroke-width:0.93749988px;stroke-linecap:butt;stroke-linejoin:miter;stroke-opacity:1" /><path
         sodipodi:nodetypes="ccccc"
         inkscape:connector-curvature="0"
         id="path4512-0-8"
         d="m -963.43469,336.70042 h 109.03109 l -54.375,138.03565 h -2.15609 z"
         style="fill:#576a5d;fill-opacity:1;stroke:none;stroke-width:0.93749988px;stroke-linecap:butt;stroke-linejoin:miter;stroke-opacity:1" /></g><path
       d="m -833.13322,942.57651 -0.094,-0.094 v -0.28192 l -0.3759,0.094 -0.28191,-0.18794 v 0.28191 l -0.094,0.0949 c 0,0 -27.16633,-29.72199 -42.27653,-63.75175 -8.38717,-17.83674 -20.82977,-67.23634 -25.20187,-89.95858 -50.08775,20.29917 -128.92827,39.87996 -132.11177,130.47144 -0.4966,14.13003 2.0097,20.68272 10.0396,23.73239 19.0587,7.23827 42.57872,8.53843 69.73524,13.47428 25.56047,4.64575 78.6912,7.92604 78.6912,7.92604 86.7173,5.38248 51.46343,-8.28786 41.96994,-21.80077 z"
       id="path5-6"
       inkscape:connector-curvature="0"
       style="fill:#576a5d;fill-opacity:1;stroke-width:1"
       inkscape:export-filename="C:\code\Fluicell\Git\Labonatip\apps\Lab-on-a-tip\icons\wizard.png"
       inkscape:export-xdpi="300"
       inkscape:export-ydpi="300"
       sodipodi:nodetypes="cccccccccssscc" /><path
       d="m -834.73083,942.1997 0.094,-0.094 v -0.28192 l 0.3759,0.094 0.2819,-0.18794 v 0.28191 l 0.094,0.0949 c 0,0 27.1663,-29.72199 42.2765,-63.75175 8.3872,-17.83674 20.8298,-67.23634 25.2019,-89.95858 18.54242,7.11277 41.36956,15.79515 59.39022,24.80407 17.85283,8.92502 27.73918,16.76666 31.38842,19.70791 2.54972,2.05505 6.57493,5.81664 6.60616,6.57769 -0.0754,8.24383 0.31844,12.54444 0.12693,19.3698 -0.21748,7.75089 -14.6067,11.78738 -20.38362,22.11733 -6.54947,11.71138 -9.34767,15.38396 -8.82095,30.1007 0.28038,7.83375 5.76766,19.93924 11.63469,26.2419 7.28788,7.82903 14.87479,9.14313 10.42618,10.83266 -19.05869,7.23829 -10.87453,2.9902 -38.03113,7.92605 -25.5604,4.64575 -78.6912,7.92604 -78.6912,7.92604 -86.7173,5.38248 -51.4634,-8.28787 -41.9699,-21.80077 z"
       id="path5-6-5"
       inkscape:connector-curvature="0"
       style="fill:#576a5d;fill-opacity:1;stroke-width:1"
       inkscape:export-filename="C:\code\Fluicell\Git\Labonatip\apps\Lab-on-a-tip\icons\wizard.png"
       inkscape:export-xdpi="300"
       inkscape:export-ydpi="300"
       sodipodi:nodetypes="cccccccccsscsssssscc" /><path
       d="m -1009.4348,603.39187 c 0,7.3299 7.5179,13.90804 8.8335,20.95603 1.40955,7.14195 -2.9132,15.97544 -0.2819,22.74152 2.72515,6.76606 12.02855,10.14911 15.88145,16.16339 3.7589,6.10825 2.7252,15.88147 7.6118,21.42589 4.5107,5.16853 13.7201,5.54443 19.4525,9.77322 1.2216,1.50358 2.5372,2.81921 3.8529,4.13482 3.383,4.98058 5.5444,11.65269 10.525,14.7538 1.6915,1.03371 3.5709,1.59753 5.5444,1.97343 16.7272,46.79962 54.1286,92.65855 103.5585,92.65855 51.7792,0 90.3082,-50.1817 105.8138,-99.23667 0.5639,-0.75179 0.9398,-1.50358 1.4096,-2.25535 7.7998,-2.91318 14.8478,-8.92746 20.0163,-17.00916 3.0072,-1.12768 5.9204,-2.4433 7.8938,-4.69865 4.8857,-5.45046 3.7589,-15.41163 7.6118,-21.42591 3.8529,-6.20223 13.2502,-9.58527 15.8815,-16.35134 2.7243,-6.76608 -1.6925,-15.59955 -0.2829,-22.74152 1.4096,-7.04799 8.8335,-13.53215 8.8335,-20.95602 0,-7.42389 -7.5178,-13.90804 -8.8335,-20.95603 -1.4096,-7.14197 2.9141,-15.97545 0.2829,-22.74153 -117.3864,33.81283 -228.7969,37.56974 -324.77235,0.18795 -2.7253,6.76607 1.69145,15.59956 0.2819,22.74152 -1.6906,6.95402 -9.1145,13.43818 -9.1145,20.86206 z m 265.94425,93.88019 c -1.7855,6.48415 -4.0418,12.9683 -6.6731,19.35848 -16.0694,39.18685 -47.2685,73.76899 -84.2,73.76899 -35.3339,0 -65.5933,-31.76295 -82.1326,-68.97637 -3.571,-7.89374 -6.4841,-16.06941 -8.7395,-24.33905 l -1.5975,-5.63838 -5.8264,-0.75179 c -6.954,-0.93974 -15.6935,-8.92747 -19.0766,-22.27167 -3.5709,-14.09597 0.9398,-28.28594 9.6793,-30.54129 0.5638,-0.094 1.1277,-0.18795 1.8795,-0.18795 0.5638,0 0.9397,0 1.5035,0.094 l 8.2697,0.75178 1.2216,-8.17567 c 2.3494,-15.22366 6.8601,-29.13169 13.0623,-41.25424 2.2554,-0.56384 4.5107,-0.75178 6.6721,-0.37589 7.5179,1.50357 13.7201,13.53214 22.0837,14.56585 7.7058,0.84576 16.6333,-9.39732 24.809,-8.92746 7.7997,0.3759 15.5995,11.65269 23.7752,11.65269 8.1757,0 15.8815,-11.27679 23.7752,-11.65269 8.2696,-0.37589 17.2911,9.8672 24.8089,8.92746 8.2697,-0.93973 14.6599,-13.06228 22.0837,-14.56585 5.3565,-1.03371 11.5587,2.06741 17.1971,4.04085 5.3565,11.27679 9.1154,23.86919 11.2768,37.68326 l 1.2217,8.17567 8.2696,-0.75179 c 1.2226,-0.094 2.4443,-0.094 3.384,0.094 8.6455,2.25535 13.1563,16.44531 9.6793,30.5413 -3.3831,13.34419 -12.1226,21.33193 -19.0766,22.27166 l -5.8264,0.75178 -1.5035,5.73237 z m -50.1817,-57.70051 c -14.8478,0 -27.4402,9.11541 -32.7027,22.17769 -8.9275,-3.75893 -19.0766,-4.04086 -28.004,-0.3759 -5.3565,-12.78036 -18.0429,-21.70781 -32.6087,-21.70781 -19.4525,0 -35.334,15.88149 -35.334,35.33393 0,19.45246 15.8815,35.33394 35.334,35.33394 18.0428,0 32.7966,-13.72009 34.958,-31.19912 7.142,-4.98058 16.7272,-4.60469 23.5873,0.93974 2.5372,17.00916 17.1971,30.07143 34.864,30.07143 19.4525,0 35.3349,-15.88148 35.3349,-35.33393 -9e-4,-19.45246 -15.8824,-35.23997 -35.4288,-35.23997 z m -93.4094,53.75269 c -10.1491,0 -18.4188,-8.17566 -18.4188,-18.41876 0,-10.14909 8.1757,-18.41873 18.4188,-18.41873 10.1491,0 18.4187,8.17565 18.4187,18.41873 0,10.15006 -8.2696,18.41876 -18.4187,18.41876 z m 93.4094,0 c -10.1491,0 -18.4188,-8.17566 -18.4188,-18.41876 0,-10.14909 8.1747,-18.41873 18.4188,-18.41873 10.1491,0 18.4187,8.17565 18.4187,18.41873 0,10.15006 -8.2696,18.41876 -18.4187,18.41876 z"
       id="path5-4"
       inkscape:connector-curvature="0"
       style="fill:#576a5d;fill-opacity:1;stroke-width:1"
       inkscape:export-filename="C:\code\Fluicell\Git\Labonatip\apps\Lab-on-a-tip\icons\wizard.png"
       inkscape:export-xdpi="300"
       inkscape:export-ydpi="300"
       sodipodi:nodetypes="sccccccccscccccccsccccsccsccccccscccccccscccccccccccccsccsssccscsssssssssss" /><g
       id="g4651"
       transform="translate(-222.68777,-46.331012)"
       style="stroke:#576a5d;stroke-opacity:1"
       inkscape:export-filename="C:\code\Fluicell\Git\Labonatip\apps\Lab-on-a-tip\icons\wizard.png"
       inkscape:export-xdpi="300"
       inkscape:export-ydpi="300"><line
         style="stroke:#576a5d;stroke-width:0.93749994;stroke-opacity:1"
         inkscape:export-ydpi="180"
         inkscape:export-xdpi="180"
         id="line10"
         y2="884.16785"
         x2="-426.332"
         y1="893.13977"
         x1="-426.332" /><line
         style="stroke:#576a5d;stroke-width:0.93749994;stroke-opacity:1"
         inkscape:export-ydpi="180"
         inkscape:export-xdpi="180"
         id="line12"
         y2="893.13977"
         x2="-426.332"
         y1="905.4491"
         x1="-426.332" /><circle
         style="fill:none;stroke:#576a5d;stroke-width:3.74999976px;stroke-miterlimit:10;stroke-opacity:1"
         inkscape:export-ydpi="180"
         inkscape:export-xdpi="180"
         id="circle14"
         r="7.2843747"
         cy="867.021"
         cx="-421.86008"
         class="cls-1" /><circle
         style="fill:none;stroke:#576a5d;stroke-width:3.74999976px;stroke-miterlimit:10;stroke-opacity:1"
         inkscape:export-ydpi="180"
         inkscape:export-xdpi="180"
         id="circle16"
         r="9.1875"
         cy="848.92725"
         cx="-454.35397"
         class="cls-1" /><circle
         style="fill:none;stroke:#576a5d;stroke-width:3.74999976px;stroke-miterlimit:10;stroke-opacity:1"
         inkscape:export-ydpi="180"
         inkscape:export-xdpi="180"
         id="circle18"
         r="12.7125"
         cy="830.15851"
         cx="-418.20383"
         class="cls-1" /><path
         style="fill:#576a5d;fill-opacity:1;stroke:#576a5d;stroke-width:0.93749994;stroke-miterlimit:10;stroke-opacity:1"
         inkscape:export-ydpi="180"
         inkscape:export-xdpi="180"
         id="path20"
         d="m -414.73531,988.85849 a 3.4312499,3.4312499 0 0 0 1.875,-0.7313 39.009373,39.009373 0 1 0 -36.1875,0 c 0,0 1.9313,0.9375 2.8688,0.7032 z"
         class="cls-2"
         inkscape:connector-curvature="0" /><polyline
         style="fill:#576a5d;fill-opacity:1;stroke:#576a5d;stroke-opacity:1"
         inkscape:export-ydpi="180"
         inkscape:export-xdpi="180"
         id="polyline22"
         points="127.57 129.87 127.57 99.12 130.09 99.12 130.09 94.47 103.38 94.47 103.38 99.12 105.89 99.12 105.89 129.87"
         transform="matrix(0.93749996,0,0,0.93749996,-541.36341,795.60225)" /><circle
         style="fill:#ffffff;stroke:#576a5d;stroke-width:0.93749994;stroke-opacity:1"
         inkscape:export-ydpi="180"
         inkscape:export-xdpi="180"
         id="circle24"
         r="9.5718746"
         cy="932.91785"
         cx="-425.46017"
         class="cls-3" /><circle
         style="fill:#ffffff;stroke:#576a5d;stroke-width:0.93749994;stroke-opacity:1"
         inkscape:export-ydpi="180"
         inkscape:export-xdpi="180"
         id="circle26"
         r="11.624999"
         cy="966.5553"
         cx="-417.3132"
         class="cls-3" /><circle
         style="fill:#ffffff;stroke:#576a5d;stroke-width:0.93749994;stroke-opacity:1"
         inkscape:export-ydpi="180"
         inkscape:export-xdpi="180"
         id="circle28"
         r="6.9843745"
         cy="955.8584"
         cx="-447.43527"
         class="cls-3" /></g></g><g
     id="g7"
     transform="translate(1033.6294,-266.71463)" /><g
     id="g9"
     transform="translate(1033.6294,-266.71463)" /><g
     id="g11"
     transform="translate(1033.6294,-266.71463)" /><g
     id="g13"
     transform="translate(1033.6294,-266.71463)" /><g
     id="g15"
     transform="translate(1033.6294,-266.71463)" /><g
     id="g17"
     transform="translate(1033.6294,-266.71463)" /><g
     id="g19"
     transform="translate(1033.6294,-266.71463)" /><g
     id="g21"
     transform="translate(1033.6294,-266.71463)" /><g
     id="g23"
     transform="translate(1033.6294,-266.71463)" /><g
     id="g25"
     transform="translate(1033.6294,-266.71463)" /><g
     id="g27"
     transform="translate(1033.6294,-266.71463)" /><g
     id="g29"
     transform="translate(1033.6294,-266.71463)" /><g
     id="g31"
     transform="translate(1033.6294,-266.71463)" /><g
     id="g33"
     transform="translate(1033.6294,-266.71463)" /><g
     id="g35"
     transform="translate(1033.6294,-266.71463)" /></svg>